<?xml version="1.0" standalone="no"?>
<!DOCTYPE svg PUBLIC "-//W3C//DTD SVG 20010904//EN"
 "http://www.w3.org/TR/2001/REC-SVG-20010904/DTD/svg10.dtd">
<svg version="1.0" xmlns="http://www.w3.org/2000/svg"
 width="500.000000pt" height="500.000000pt" viewBox="0 0 500.000000 500.000000"
 preserveAspectRatio="xMidYMid meet">
<metadata>
Created by potrace 1.14, written by Peter Selinger 2001-2017
</metadata>
<g transform="translate(0.000000,500.000000) scale(0.100000,-0.100000)"
fill="#000000" stroke="none">
<path d="M1127 3594 c35 -27 63 -66 68 -96 6 -28 8 -133 5 -243 0 -22 1 -53 2
-72 1 -8 8 -7 23 3 20 13 72 11 87 -4 7 -7 66 -176 218 -617 143 -414 189
-545 198 -560 7 -13 12 -6 25 32 8 26 39 113 67 193 28 80 69 195 90 257 21
62 41 117 45 123 3 5 8 18 10 27 2 10 10 37 19 61 8 23 14 42 13 43 -1 1 -19
2 -40 3 -23 2 -43 10 -51 22 -8 10 -35 78 -59 149 -39 114 -176 508 -226 650
l-18 50 -253 1 -253 2 30 -24z"/>
<path d="M2284 3608 c-4 -5 -36 -99 -73 -208 l-67 -198 37 5 c28 4 40 1 56
-16 20 -21 20 -35 19 -564 -1 -602 2 -574 -69 -624 l-32 -23 308 0 308 0 -36
31 c-20 18 -42 46 -49 63 -16 39 -19 1392 -3 1441 12 37 66 97 80 88 6 -3 7
-1 4 4 -9 14 -475 14 -483 1z"/>
<path d="M2985 3608 c11 -5 35 -30 52 -55 l33 -47 -3 -711 c-2 -680 -3 -711
-21 -742 -11 -17 -30 -37 -43 -44 -13 -7 -23 -16 -23 -21 0 -4 113 -8 250 -8
l250 0 1 43 c0 23 0 361 1 752 0 777 -1 759 59 809 16 14 29 27 29 29 0 3
-136 5 -302 4 -190 0 -296 -3 -283 -9z"/>
<path d="M4056 2363 c-31 -124 -229 -315 -361 -349 -5 -2 -24 -7 -42 -12 -17
-6 -34 -8 -37 -6 -4 2 -2 -1 2 -6 5 -7 90 -9 232 -8 l224 3 1 193 c0 189 -5
242 -19 185z"/>
<path d="M1200 2222 c0 -35 -46 -117 -86 -156 -20 -20 -56 -45 -80 -57 -24
-11 -44 -23 -44 -25 0 -2 100 -4 223 -4 l222 0 -50 25 c-83 42 -137 105 -169
196 -10 29 -15 36 -16 21z"/>
<path d="M2516 1685 c-84 -30 -126 -85 -131 -171 -4 -85 33 -147 107 -178 117
-49 252 -7 253 79 0 45 -6 44 -26 -4 -21 -50 -60 -75 -115 -75 -52 -1 -91 25
-117 77 -33 65 -19 187 26 232 8 8 35 19 59 25 58 15 109 -5 138 -52 l20 -33
0 41 c0 36 -4 43 -27 53 -47 19 -144 22 -187 6z"/>
<path d="M3683 1686 c-39 -18 -53 -43 -53 -94 0 -44 11 -56 108 -121 69 -46
77 -58 68 -95 -7 -27 -63 -52 -95 -41 -38 12 -71 46 -71 73 0 21 -2 24 -10 12
-5 -8 -10 -30 -10 -48 0 -40 29 -55 111 -55 44 -1 65 4 93 23 20 14 36 32 36
40 0 9 5 21 12 28 9 9 9 12 0 12 -6 0 -9 7 -6 15 10 25 -20 59 -99 111 -79 51
-98 81 -68 108 37 33 97 28 126 -11 8 -10 10 -6 11 17 1 16 -3 30 -10 30 -6 0
-33 3 -61 5 -32 3 -62 0 -82 -9z"/>
<path d="M1150 1680 c0 -5 5 -10 10 -10 6 0 10 -62 10 -165 0 -146 -2 -165
-17 -174 -13 -8 3 -10 62 -10 44 1 71 4 60 6 -11 3 -22 9 -25 13 -4 7 -5 103
-1 146 1 11 155 13 166 2 4 -4 7 -37 7 -74 0 -54 -4 -70 -18 -81 -15 -11 -7
-13 57 -12 41 1 66 3 57 6 -20 5 -19 -2 -21 192 -2 132 0 144 18 157 17 13 12
14 -49 14 -60 0 -67 -2 -56 -15 14 -17 18 -140 6 -152 -4 -5 -43 -8 -87 -8
-89 -1 -82 -9 -81 94 1 41 6 67 14 72 8 5 -13 9 -49 9 -36 0 -63 -4 -63 -10z"/>
<path d="M1939 1658 c-7 -18 -27 -64 -44 -103 -17 -38 -42 -96 -56 -128 -13
-32 -34 -69 -46 -83 l-22 -24 47 0 c36 1 43 3 30 10 -15 9 -15 13 -2 38 7 15
14 33 14 40 0 13 7 14 87 16 52 2 52 1 68 -39 14 -37 14 -41 -2 -52 -14 -11
-2 -13 68 -12 61 0 78 3 61 9 -12 5 -26 20 -31 34 -5 13 -25 57 -44 97 -19 41
-38 85 -42 99 -4 14 -11 27 -14 30 -10 7 -41 76 -41 89 0 23 -18 10 -31 -21z
m24 -141 c10 -28 19 -56 20 -61 1 -6 -22 -10 -50 -11 -29 0 -53 1 -53 2 0 10
54 123 59 123 3 0 14 -24 24 -53z"/>
<path d="M3023 1683 c20 -5 19 6 22 -173 1 -107 -2 -151 -12 -167 -13 -23 -13
-23 54 -23 47 1 63 3 52 10 -14 8 -16 33 -16 170 0 127 3 164 14 176 13 12 5
14 -59 13 -40 -1 -65 -3 -55 -6z"/>
<path d="M3266 1677 c2 -7 -24 -50 -60 -96 -58 -74 -73 -111 -45 -111 5 0 9
-5 9 -11 0 -9 47 -74 78 -107 15 -16 73 -32 117 -31 26 0 27 1 9 9 -21 8 -30
19 -115 133 -45 61 -50 71 -40 90 17 30 103 123 121 130 8 3 -6 6 -32 6 -35 1
-46 -2 -42 -12z"/>
</g>
</svg>
